<svg aria-hidden="true" style="position: absolute; width: 0; height: 0; overflow: hidden;" version="1.1" xmlns="http://www.w3.org/2000/svg" xmlns:xlink="http://www.w3.org/1999/xlink">
    <defs>
        <symbol id="icon-Vector-3" viewBox="0 0 32 32">
            <path stroke-linejoin="round" stroke-linecap="round" stroke-miterlimit="4" stroke-width="3.4286" d="M15.429 1.714l4.238 9.027 9.477 1.457-6.857 7.023 1.618 9.922-8.475-4.687-8.475 4.687 1.618-9.922-6.857-7.023 9.477-1.457 4.238-9.027z"></path>
        </symbol>
        <symbol id="icon-Vector-4" viewBox="0 0 32 32">
            <path stroke-linejoin="round" stroke-linecap="round" stroke-miterlimit="4" stroke-width="3.4286" d="M15.429 1.714l4.238 9.027 9.477 1.457-6.857 7.023 1.618 9.922-8.475-4.687-8.475 4.687 1.618-9.922-6.857-7.023 9.477-1.457 4.238-9.027z"></path>
        </symbol>
        <symbol id="icon-arrow" viewBox="0 0 32 32">
            <path d="M32 16c0 8.837-7.163 16-16 16s-16-7.163-16-16c0-8.837 7.163-16 16-16s16 7.163 16 16z"></path>
            <path fill="none" stroke="#777" style="stroke: var(--color1, #777)" stroke-linejoin="round" stroke-linecap="round" stroke-miterlimit="4" stroke-width="1.3" d="M11 21l10-10"></path>
            <path fill="none" stroke="#777" style="stroke: var(--color1, #777)" stroke-linejoin="round" stroke-linecap="round" stroke-miterlimit="4" stroke-width="1.3" d="M14.333 11h6.667v6.667"></path>
        </symbol>
        <symbol id="icon-FocusFrame" viewBox="0 0 246 32">
            <path d="M20.668 18.151h-14.002v13.235h-6.666v-31.386h22.682v5.483h-16.017v7.137h14.002v5.53z"></path>
            <path d="M34.18 26.848c3.788 0 5.706-2.363 5.706-7.090s-1.918-7.043-5.706-7.043c-3.788 0-5.707 2.316-5.707 7.043s1.918 7.090 5.707 7.090zM34.18 32c-7.625 0-12.132-5.010-12.132-12.242 0-7.374 4.652-12.242 12.132-12.242 7.385 0 11.988 4.821 11.988 12.242 0 7.374-4.652 12.242-11.988 12.242z"></path>
            <path d="M63.387 22.972h6.282c-0.671 5.388-5.131 9.028-10.838 9.028-6.426 0-10.838-4.207-10.838-12.526s4.412-11.959 11.029-11.959c6.138 0 10.31 3.45 10.694 8.934h-6.282c-0.336-2.411-2.11-3.829-4.46-3.829-2.637 0-4.795 1.654-4.795 6.712s2.158 7.515 4.604 7.515 4.364-1.371 4.604-3.876z"></path>
            <path d="M92.756 31.386h-5.898v-3.262c-1.63 2.647-4.076 3.876-7.337 3.876-4.699 0-8.008-3.451-8.008-8.555v-15.315h6.234v14.369c0 2.931 1.343 4.349 3.98 4.349 3.165 0 4.843-2.222 4.843-5.294v-13.424h6.186v23.256z"></path>
            <path d="M115.678 15.173h-5.994c-0.336-2.269-1.582-3.072-4.412-3.072-2.35 0-3.693 0.567-3.693 1.938s1.295 1.938 3.836 2.647c2.685 0.756 5.227 1.276 7.049 1.985 2.494 0.993 3.884 2.6 3.884 5.625 0 4.821-3.596 7.705-10.31 7.705-7.241 0-11.269-3.356-11.365-8.083h6.426c0 2.174 1.87 3.451 4.891 3.451 2.206 0 4.172-0.662 4.172-2.411 0-1.654-1.774-2.174-3.788-2.647-3.98-0.945-6.186-1.607-7.864-2.647-2.206-1.371-2.973-3.167-2.973-5.247 0-3.923 2.733-6.901 9.926-6.901 6.809 0 9.878 2.647 10.214 7.657z"></path>
            <path d="M124.63 31.386h-6.665v-6.381h6.665v6.381z"></path>
            <path d="M147.577 18.151h-14.002v13.235h-6.666v-31.386h22.682v5.483h-16.016v7.137h14.002v5.53z"></path>
            <path d="M156.561 31.386h-6.234v-23.256h5.85v2.789c2.062-3.12 4.46-3.403 7.001-3.403h0.815v6.287c-0.575-0.095-1.151-0.142-1.726-0.142-3.836 0-5.707 1.891-5.707 5.625v12.101z"></path>
            <path d="M178.854 22.547l0.048-2.553c-0.623 0.614-1.726 0.945-4.028 1.371-3.549 0.662-4.699 1.654-4.699 3.64 0 1.749 1.055 2.6 3.021 2.6 3.213 0 5.611-2.316 5.659-5.058zM185.135 31.386h-5.802c-0.192-0.567-0.336-1.371-0.384-2.080-1.487 1.607-3.98 2.694-7.145 2.694-5.371 0-7.864-2.6-7.864-6.381 0-6.712 4.556-7.468 10.837-8.319 3.117-0.425 3.98-1.040 3.98-2.647 0-1.513-1.534-2.411-3.98-2.411-2.829 0-3.98 1.371-4.268 3.451h-5.802c0.096-4.821 2.781-8.177 10.358-8.177 7.481 0 10.070 3.309 10.070 9.17v14.7z"></path>
            <path d="M221.644 31.386h-6.090v-14.086c0-2.789-1.486-4.774-3.692-4.774-2.302 0-3.98 2.127-3.98 4.963v13.897h-6.234v-13.991c0-3.734-1.008-4.679-3.741-4.679-2.494 0-3.788 1.513-3.788 4.538v14.133h-6.234v-23.256h5.85v3.403c1.582-3.072 3.788-4.018 6.905-4.018 3.214 0 4.748 0.993 6.57 3.687 1.294-2.552 3.404-3.687 6.378-3.687 4.748 0 8.056 3.403 8.056 7.752v16.118z"></path>
            <path d="M229.936 17.489h9.638c-0.096-3.451-2.398-5.105-4.844-5.105-2.492 0-4.554 1.891-4.794 5.105zM246 21.365h-16.256c0.192 3.498 2.206 5.767 5.274 5.767 2.014 0 3.788-0.993 4.22-2.6h6.426c-1.438 4.774-5.322 7.468-10.358 7.468-7.864 0-11.796-4.254-11.796-12.668 0-7.185 4.172-11.817 11.412-11.817 7.242 0 11.078 4.632 11.078 13.849z"></path>
        </symbol>
        <symbol id="icon-Arrow-2-Stroke" viewBox="0 0 64 32">
            <path d="M44.444 0l19.556 15.396-19.556 15.396v-12.729h-44.444v-5.333h44.444v-12.729z"></path>
        </symbol>
        <symbol id="icon-Vector-5" viewBox="0 0 34 32">
            <path stroke-linejoin="round" stroke-linecap="round" stroke-miterlimit="4" stroke-width="2.6667" d="M16.148 1.333l4.578 9.274 10.237 1.496-7.407 7.215 1.748 10.193-9.155-4.815-9.156 4.815 1.748-10.193-7.407-7.215 10.237-1.496 4.578-9.274z"></path>
        </symbol>
        <symbol id="icon-Nav" viewBox="0 0 47 32">
            <path stroke-linejoin="miter" stroke-linecap="round" stroke-miterlimit="4" stroke-width="2.9091" d="M8.538 5.333h36.553"></path>
            <path stroke-linejoin="miter" stroke-linecap="round" stroke-miterlimit="4" stroke-width="2.9091" d="M8.538 24.727h36.553"></path>
            <path stroke-linejoin="miter" stroke-linecap="round" stroke-miterlimit="4" stroke-width="2.9091" d="M19.668 15.030h25.423"></path>
        </symbol>
        <symbol id="icon-x" viewBox="0 0 32 32">
            <path stroke-linejoin="round" stroke-linecap="round" stroke-miterlimit="4" stroke-width="3" d="M24 8l-16 16"></path>
            <path stroke-linejoin="round" stroke-linecap="round" stroke-miterlimit="4" stroke-width="3" d="M8 8l16 16"></path>
        </symbol>
    </defs>
</svg>