<svg aria-hidden="true" style="position: absolute; width: 0; height: 0; overflow: hidden;" version="1.1" xmlns="http://www.w3.org/2000/svg" xmlns:xlink="http://www.w3.org/1999/xlink">
    <defs>
        <symbol id="icon-Vector-3" viewBox="0 0 32 32">
            <path stroke-linejoin="round" stroke-linecap="round" stroke-miterlimit="4" stroke-width="3.4286" d="M15.429 1.714l4.238 9.027 9.477 1.457-6.857 7.023 1.618 9.922-8.475-4.687-8.475 4.687 1.618-9.922-6.857-7.023 9.477-1.457 4.238-9.027z"></path>
        </symbol>
        <symbol id="icon-Vector-4" viewBox="0 0 32 32">
            <path stroke-linejoin="round" stroke-linecap="round" stroke-miterlimit="4" stroke-width="3.4286" d="M15.429 1.714l4.238 9.027 9.477 1.457-6.857 7.023 1.618 9.922-8.475-4.687-8.475 4.687 1.618-9.922-6.857-7.023 9.477-1.457 4.238-9.027z"></path>
        </symbol>
        <symbol id="icon-arrow" viewBox="0 0 32 32">
            <path d="M32 16c0 8.837-7.163 16-16 16s-16-7.163-16-16c0-8.837 7.163-16 16-16s16 7.163 16 16z"></path>
            <path fill="none" stroke="#777" style="stroke: var(--color1, #777)" stroke-linejoin="round" stroke-linecap="round" stroke-miterlimit="4" stroke-width="1.3" d="M11 21l10-10"></path>
            <path fill="none" stroke="#777" style="stroke: var(--color1, #777)" stroke-linejoin="round" stroke-linecap="round" stroke-miterlimit="4" stroke-width="1.3" d="M14.333 11h6.667v6.667"></path>
        </symbol>
    </defs>
</svg>